<?xml version="1.0" encoding="UTF-8" standalone="no"?>
<!DOCTYPE svg PUBLIC "-//W3C//DTD SVG 1.1//EN" "http://www.w3.org/Graphics/SVG/1.1/DTD/svg11.dtd">
<svg width="100%" height="100%" viewBox="0 0 512 512" version="1.1" xmlns="http://www.w3.org/2000/svg" xmlns:xlink="http://www.w3.org/1999/xlink" xml:space="preserve" xmlns:serif="http://www.serif.com/" style="fill-rule:evenodd;clip-rule:evenodd;stroke-linejoin:round;stroke-miterlimit:2;">
    <g transform="matrix(13.1427,0,0,-13.1427,-7136.76,8195.74)">
        <g transform="matrix(0.659757,0,0,-0.511384,540.784,603.113)">
            <path d="M8.262,31.553C8.008,31.787 7.813,32.07 7.676,32.402C7.539,32.734 7.471,33.086 7.471,33.457C7.471,33.965 7.588,34.419 7.822,34.819C8.057,35.22 8.374,35.537 8.774,35.771C9.175,36.006 9.629,36.123 10.137,36.123C10.938,36.123 11.572,35.869 12.041,35.361L34.482,12.451L31.348,12.451L53.789,35.361C54.277,35.869 54.912,36.123 55.693,36.123C56.201,36.123 56.655,36.006 57.056,35.771C57.456,35.537 57.773,35.22 58.008,34.819C58.242,34.419 58.359,33.965 58.359,33.457C58.359,32.695 58.096,32.061 57.568,31.553L34.893,8.35C34.639,8.076 34.341,7.861 33.999,7.705C33.657,7.549 33.301,7.471 32.93,7.471C32.148,7.471 31.484,7.764 30.938,8.35L8.262,31.553Z" style="fill:rgb(122,150,193);fill-rule:nonzero;"/>
        </g>
        <g transform="matrix(0.659757,0,0,-0.511384,540.784,615.765)">
            <path d="M8.262,31.553C8.008,31.787 7.813,32.07 7.676,32.402C7.539,32.734 7.471,33.086 7.471,33.457C7.471,33.965 7.588,34.419 7.822,34.819C8.057,35.22 8.374,35.537 8.774,35.771C9.175,36.006 9.629,36.123 10.137,36.123C10.938,36.123 11.572,35.869 12.041,35.361L34.482,12.451L31.348,12.451L53.789,35.361C54.277,35.869 54.912,36.123 55.693,36.123C56.201,36.123 56.655,36.006 57.056,35.771C57.456,35.537 57.773,35.22 58.008,34.819C58.242,34.419 58.359,33.965 58.359,33.457C58.359,32.695 58.096,32.061 57.568,31.553L34.893,8.35C34.639,8.076 34.341,7.861 33.999,7.705C33.657,7.549 33.301,7.471 32.93,7.471C32.148,7.471 31.484,7.764 30.938,8.35L8.262,31.553Z" style="fill:rgb(122,150,193);fill-opacity:0.65;fill-rule:nonzero;"/>
        </g>
        <g transform="matrix(0.659757,0,0,-0.511384,540.784,627.418)">
            <path d="M8.262,31.553C8.008,31.787 7.813,32.07 7.676,32.402C7.539,32.734 7.471,33.086 7.471,33.457C7.471,33.965 7.588,34.419 7.822,34.819C8.057,35.22 8.374,35.537 8.774,35.771C9.175,36.006 9.629,36.123 10.137,36.123C10.938,36.123 11.572,35.869 12.041,35.361L34.482,12.451L31.348,12.451L53.789,35.361C54.277,35.869 54.912,36.123 55.693,36.123C56.201,36.123 56.655,36.006 57.056,35.771C57.456,35.537 57.773,35.22 58.008,34.819C58.242,34.419 58.359,33.965 58.359,33.457C58.359,32.695 58.096,32.061 57.568,31.553L34.893,8.35C34.639,8.076 34.341,7.861 33.999,7.705C33.657,7.549 33.301,7.471 32.93,7.471C32.148,7.471 31.484,7.764 30.938,8.35L8.262,31.553Z" style="fill:rgb(122,150,193);fill-opacity:0.3;fill-rule:nonzero;"/>
        </g>
    </g>
</svg>
