<?xml version="1.0" encoding="UTF-8" standalone="no"?>
<!DOCTYPE svg PUBLIC "-//W3C//DTD SVG 1.1//EN" "http://www.w3.org/Graphics/SVG/1.1/DTD/svg11.dtd">
<svg width="100%" height="100%" viewBox="0 0 512 512" version="1.1" xmlns="http://www.w3.org/2000/svg" xmlns:xlink="http://www.w3.org/1999/xlink" xml:space="preserve" xmlns:serif="http://www.serif.com/" style="fill-rule:evenodd;clip-rule:evenodd;stroke-linejoin:round;stroke-miterlimit:2;">
    <g transform="matrix(1,0,0,1,0,-4.06901e-05)">
        <path d="M496.101,385.669L510.328,414.332C514.257,422.247 511.025,431.848 503.11,435.777L437.645,468.663C421.596,476.63 402.089,469.857 394.456,453.608L331.679,320L192,320C176.075,320 162.574,308.29 160.321,292.525C126.433,55.308 128.38,70.044 128,64C128,27.642 158.318,-1.635 195.052,0.071C228.323,1.616 255.1,28.976 255.977,62.272C256.845,95.205 232.825,122.695 201.369,127.311L206.039,160.001L336,160.001C344.837,160.001 352,167.164 352,176.001L352,208.001C352,216.838 344.837,224.001 336,224.001L215.182,224.001L219.754,256.001L352,256.001C364.381,256.001 375.697,263.187 380.962,274.393L438.477,396.8L474.655,378.451C482.57,374.522 492.172,377.754 496.101,385.669ZM311.358,352L286.852,352C279.064,406.204 232.324,448 176,448C114.243,448 64,397.757 64,336C64,294.495 86.694,258.191 120.324,238.844C116.612,212.879 113.48,190.984 110.836,172.511C45.956,198.464 0,261.963 0,336C0,433.047 78.953,512 176,512C247.87,512 309.806,468.692 337.11,406.808L311.358,352Z" style="fill:rgb(122,150,193);fill-rule:nonzero;"/>
    </g>
</svg>
